<?xml version="1.0" standalone="no"?>
<!DOCTYPE svg PUBLIC "-//W3C//DTD SVG 20010904//EN"
 "http://www.w3.org/TR/2001/REC-SVG-20010904/DTD/svg10.dtd">
<svg version="1.0" xmlns="http://www.w3.org/2000/svg"
 width="220.000000pt" height="220.000000pt" viewBox="0 0 220.000000 220.000000"
 preserveAspectRatio="xMidYMid meet">
<metadata>
Created by potrace 1.14, written by Peter Selinger 2001-2017
</metadata>
<g transform="translate(0.000000,220.000000) scale(0.100000,-0.100000)"
fill="#000000" stroke="none">
<path d="M1075 1990 c-8 -59 -24 -99 -48 -119 -13 -10 -20 -7 -41 16 -14 15
-26 31 -26 35 0 5 -4 8 -10 8 -6 0 -9 -3 -8 -7 4 -17 -24 -83 -36 -83 -23 0
-52 29 -76 74 -26 52 -43 61 -30 17 10 -37 5 -110 -9 -124 -8 -8 -21 -6 -46 7
-19 11 -35 23 -35 28 0 4 -4 8 -9 8 -4 0 -8 -20 -8 -45 0 -25 -3 -48 -5 -51
-14 -13 -68 14 -117 60 l-54 51 28 -52 c16 -31 28 -69 29 -95 1 -40 -1 -43
-24 -42 -14 0 -35 4 -48 8 -21 7 -22 6 -15 -21 4 -15 7 -39 8 -53 0 -23 -3
-25 -39 -23 -21 2 -53 11 -70 21 -61 36 -67 31 -22 -15 56 -56 74 -105 42
-114 -12 -3 -36 -4 -54 -3 -35 3 -35 2 1 -50 20 -28 20 -29 2 -42 -25 -18 -70
-21 -140 -10 l-40 7 57 -31 c94 -49 113 -102 44 -116 -20 -3 -36 -9 -36 -13 0
-3 16 -17 35 -30 19 -13 35 -31 35 -41 0 -23 -50 -46 -120 -56 l-55 -8 62 -11
c67 -13 113 -37 113 -59 0 -8 -16 -24 -35 -36 -35 -22 -38 -40 -7 -40 9 -1 27
-6 39 -13 l23 -12 -20 -32 c-11 -19 -43 -45 -77 -63 l-58 -31 40 7 c71 12 114
8 139 -11 18 -14 18 -15 -8 -49 -14 -19 -26 -37 -26 -39 0 -3 15 -4 33 -2 17
1 42 -1 54 -6 20 -7 21 -11 12 -38 -6 -16 -31 -51 -56 -76 -26 -25 -38 -42
-27 -37 10 4 37 16 59 27 40 18 89 24 102 12 3 -4 1 -25 -6 -48 -7 -22 -11
-43 -8 -45 2 -2 18 1 36 7 17 6 39 8 47 5 24 -9 12 -78 -23 -141 l-27 -50 56
51 c85 77 121 79 120 6 l-1 -41 47 29 47 29 13 -31 c8 -19 11 -47 8 -68 -3
-19 -8 -48 -11 -65 -4 -24 0 -20 25 24 31 56 64 91 86 91 7 0 18 -17 25 -37
18 -57 19 -57 47 -19 29 41 33 43 54 19 26 -30 37 -57 43 -108 3 -27 7 -50 9
-52 2 -2 7 21 10 51 7 52 38 115 61 123 6 1 21 -13 34 -32 21 -31 36 -38 36
-17 0 22 30 72 42 72 21 0 63 -49 84 -97 17 -39 35 -61 24 -30 -11 31 -14 119
-5 142 12 31 25 31 66 0 18 -14 34 -25 36 -25 2 0 3 20 2 45 0 25 2 48 6 50
18 11 79 -20 123 -62 l48 -48 -31 63 c-36 73 -38 127 -5 126 11 0 33 -4 49 -8
25 -6 28 -5 21 11 -4 10 -11 32 -15 50 -7 27 -5 32 15 37 27 7 76 -7 119 -33
48 -30 53 -26 14 12 -47 45 -68 78 -68 104 0 24 9 27 69 24 l34 -2 -26 35
c-15 19 -27 39 -27 44 0 31 60 42 150 28 l45 -7 -50 26 c-62 33 -95 63 -95 87
0 17 8 22 69 43 9 4 -1 16 -28 35 -22 17 -41 33 -41 38 0 16 70 51 111 56 24
3 49 5 54 6 6 1 -19 8 -54 16 -37 8 -75 24 -88 36 l-22 21 32 28 c18 16 36 29
40 29 21 0 -7 18 -37 24 -19 4 -37 13 -39 21 -9 22 30 63 91 96 l57 29 -45 -6
c-52 -7 -46 -7 -86 -5 -16 0 -39 7 -50 15 -19 14 -19 15 2 43 11 15 23 33 26
38 4 6 -13 10 -43 11 -27 0 -51 3 -55 6 -12 12 28 81 68 119 42 40 33 42 -27
8 -36 -21 -87 -30 -105 -19 -12 8 -10 42 5 82 6 15 3 16 -27 8 -65 -19 -71
-16 -65 38 3 27 18 71 33 98 l27 49 -57 -52 c-32 -29 -62 -53 -67 -54 -52 -6
-54 -5 -53 43 l2 46 -46 -29 -46 -29 -12 22 c-13 23 -12 109 1 141 4 9 3 17
-2 17 -5 0 -14 -15 -21 -34 -14 -39 -66 -96 -86 -96 -8 0 -20 17 -27 38 -6 20
-14 40 -16 45 -3 5 -31 -23 -60 -62 -2 -3 -15 6 -29 20 -17 18 -28 45 -38 94
l-13 70 -8 -55z"/>
</g>
</svg>
