<?xml version="1.0" standalone="no"?>
<!DOCTYPE svg PUBLIC "-//W3C//DTD SVG 20010904//EN"
 "http://www.w3.org/TR/2001/REC-SVG-20010904/DTD/svg10.dtd">
<svg version="1.0" xmlns="http://www.w3.org/2000/svg"
 width="150.000000pt" height="150.000000pt" viewBox="0 0 200.000000 200.000000"
 preserveAspectRatio="xMidYMid meet">
<metadata>
Created by potrace 1.16, written by Peter Selinger 2001-2019
</metadata>
<g transform="translate(0.000000,220.000000) scale(0.100000,-0.100000)"
fill="#000000" stroke="none">
<path d="M1070 1991 c-11 -65 -39 -121 -60 -121 -5 0 -18 16 -30 35 -12 19
-25 35 -30 35 -4 0 -13 -20 -20 -45 -7 -25 -16 -48 -20 -50 -16 -10 -56 35
-84 94 -17 33 -33 61 -36 61 -4 0 -4 -19 1 -42 11 -60 11 -116 -1 -139 -11
-19 -13 -18 -55 11 l-45 31 0 -51 c0 -47 -1 -50 -26 -50 -17 0 -44 18 -83 55
-32 30 -61 55 -65 55 -3 0 7 -27 24 -60 18 -36 30 -75 30 -99 l0 -40 -47 14
c-26 8 -49 13 -50 11 -2 -2 0 -14 5 -27 5 -13 12 -36 16 -51 6 -26 4 -28 -26
-28 -18 0 -59 14 -91 31 -32 17 -61 28 -65 25 -3 -4 15 -28 40 -54 52 -53 74
-90 61 -102 -4 -5 -29 -10 -56 -12 l-47 -3 27 -38 c27 -38 27 -39 8 -53 -22
-17 -53 -18 -125 -4 -29 6 -55 8 -57 6 -3 -2 23 -19 57 -37 61 -32 104 -74 94
-90 -3 -5 -26 -15 -51 -22 l-46 -14 46 -32 c26 -17 47 -36 47 -41 0 -13 -83
-50 -116 -51 -29 -1 -87 -16 -69 -18 104 -11 175 -37 175 -64 0 -7 -18 -24
-41 -39 -44 -28 -44 -28 19 -48 23 -7 42 -16 42 -20 0 -21 -49 -64 -102 -91
-33 -17 -58 -32 -56 -34 2 -2 35 1 73 7 50 7 78 7 98 -1 33 -13 34 -21 2 -59
-14 -17 -25 -33 -25 -36 0 -3 23 -6 50 -6 82 0 76 -39 -19 -127 -54 -50 -42
-54 39 -13 51 26 120 40 120 25 0 -2 -7 -25 -16 -51 -8 -25 -14 -48 -11 -50 2
-2 23 3 47 11 23 8 44 15 46 15 2 0 4 -19 4 -42 0 -29 -10 -61 -30 -97 -17
-30 -28 -57 -25 -60 3 -2 27 16 53 41 86 84 122 88 122 14 l0 -46 45 32 c25
17 48 28 52 24 10 -10 10 -120 1 -163 -12 -52 6 -39 38 28 29 61 64 97 83 84
6 -3 16 -24 22 -45 7 -22 15 -40 18 -40 3 0 16 16 29 35 12 19 26 35 31 35 20
0 50 -53 56 -98 4 -26 10 -58 14 -72 7 -22 9 -18 15 25 11 72 24 110 45 129
18 17 20 16 48 -18 15 -20 31 -36 34 -36 4 0 10 15 13 33 3 19 12 41 19 50 11
16 14 16 35 1 12 -8 38 -46 57 -82 l35 -67 -6 76 c-10 120 6 143 64 94 17 -14
33 -25 36 -25 3 0 6 23 6 50 0 39 4 50 16 50 26 0 57 -20 112 -73 28 -28 52
-48 52 -44 0 4 -14 35 -31 68 -21 43 -29 72 -27 99 l3 38 43 -15 c24 -8 46
-13 48 -11 1 2 -3 22 -11 43 -8 22 -14 46 -15 53 0 22 58 13 120 -18 33 -16
62 -30 66 -30 4 0 -14 22 -40 50 -47 50 -71 94 -60 111 3 5 27 9 55 9 l49 0
-31 42 -30 43 31 14 c26 13 42 13 102 3 39 -7 73 -10 75 -8 3 3 -22 18 -55 35
-53 27 -102 70 -102 91 0 4 20 13 45 20 25 7 45 15 45 19 -1 3 -19 18 -40 33
-22 15 -40 33 -40 38 0 16 80 49 120 50 19 1 44 5 55 9 15 6 7 10 -35 16 -64
8 -110 26 -128 48 -12 14 -8 19 27 43 23 15 41 30 41 33 0 4 -20 12 -45 19
-25 7 -45 16 -45 21 0 22 47 64 102 92 33 17 58 32 56 35 -3 2 -31 -1 -63 -7
-60 -11 -120 -6 -131 12 -3 6 6 28 20 50 l26 39 -55 0 c-46 0 -55 3 -55 18 0
23 27 61 75 104 22 20 37 39 33 43 -3 3 -33 -7 -67 -24 -58 -30 -121 -41 -121
-22 0 5 7 28 15 51 8 24 14 45 12 47 -2 2 -23 -4 -47 -12 -24 -8 -46 -13 -49
-10 -13 14 0 77 28 133 17 34 28 62 23 62 -4 0 -26 -18 -47 -41 -42 -43 -83
-69 -110 -69 -11 0 -15 12 -15 50 l0 51 -46 -32 c-37 -25 -48 -29 -56 -18 -10
15 -4 142 7 172 4 9 3 17 -2 17 -5 0 -22 -27 -38 -61 -16 -33 -42 -70 -57 -81
l-28 -20 -15 36 c-8 19 -15 42 -15 51 0 25 -17 17 -40 -20 -12 -20 -27 -34
-33 -32 -25 8 -49 57 -57 116 -5 35 -11 65 -13 68 -3 2 -10 -27 -17 -66z
m-130 -201 c79 -20 112 -52 70 -65 -12 -4 -36 -22 -55 -41 l-34 -33 -25 54
c-14 30 -27 55 -29 55 -2 0 1 -27 6 -60 5 -33 8 -62 6 -63 -2 -1 -34 -1 -71 1
-60 3 -68 6 -68 23 0 27 23 69 50 94 12 11 28 32 36 48 14 26 16 26 42 13 15
-8 47 -19 72 -26z m446 -57 c19 -24 34 -54 34 -66 0 -20 -4 -22 -44 -19 -24 2
-53 -1 -65 -7 -19 -10 -21 -9 -21 11 0 13 5 41 10 63 13 58 5 55 -27 -9 -30
-61 -37 -66 -53 -37 -5 11 -26 29 -45 41 -19 12 -35 26 -35 30 0 21 45 49 89
55 25 3 57 12 71 20 23 12 26 12 38 -12 8 -14 29 -45 48 -70z m-236 -52 c54
-33 66 -61 26 -61 -14 0 -38 -11 -54 -25 -16 -13 -32 -22 -36 -18 -3 3 -6 1
-6 -6 0 -7 -13 -2 -30 12 -16 14 -43 28 -60 32 -48 10 -41 22 50 89 33 24 47
29 53 20 4 -7 30 -26 57 -43z m-144 -111 c36 -13 71 -68 61 -94 -6 -16 -9 -16
-29 -2 -15 11 -45 16 -89 16 -108 0 -118 10 -69 67 17 18 30 38 30 43 0 5 15
3 33 -4 17 -8 46 -20 63 -26z m281 -18 l33 -47 -90 -5 c-51 -3 -94 -10 -102
-17 -35 -36 -39 18 -4 62 21 26 77 51 121 54 6 0 25 -21 42 -47z m344 17 c13
-7 37 -15 53 -18 l29 -6 -2 -85 c-1 -46 -7 -92 -12 -102 -9 -17 -13 -17 -47
12 -20 16 -45 30 -54 30 -30 0 -20 25 23 59 22 18 38 35 36 38 -3 2 -28 -7
-56 -21 -28 -14 -53 -26 -56 -26 -3 0 -5 11 -5 25 0 14 -7 42 -15 62 -20 47
-19 51 8 55 26 4 64 -5 98 -23z m-978 15 c3 -4 -1 -20 -9 -37 -9 -16 -16 -45
-17 -63 -1 -19 -5 -34 -10 -34 -5 0 -29 12 -55 27 l-47 27 44 -48 43 -48 -38
-17 c-22 -10 -45 -25 -53 -34 -7 -10 -19 -17 -27 -17 -24 0 -33 35 -31 123 2
86 2 87 27 88 14 0 45 9 70 19 46 19 91 25 103 14z m707 -149 c0 -16 9 -54 20
-83 22 -57 24 -80 11 -101 -7 -11 -17 -7 -50 19 -33 27 -46 32 -75 27 -31 -5
-34 -3 -39 23 -4 17 -24 43 -52 65 -25 21 -45 42 -45 47 0 19 61 33 144 33
l86 0 0 -30z m-590 -9 c0 -7 -9 -35 -21 -61 -20 -46 -22 -88 -4 -127 13 -32
-43 -22 -76 13 -26 27 -29 39 -29 93 l0 61 53 16 c67 21 77 22 77 5z m265 4
c3 -5 -8 -16 -25 -25 -47 -24 -70 -52 -70 -84 0 -26 -3 -28 -38 -27 -26 0 -48
-7 -73 -27 -20 -15 -39 -27 -43 -27 -15 0 -25 50 -15 79 11 30 61 58 182 101
61 22 74 23 82 10z m458 -12 c24 -8 35 -18 32 -26 -3 -8 -5 -37 -5 -65 -1 -60
-23 -94 -67 -103 l-28 -6 0 59 c0 32 -8 82 -17 112 l-18 53 33 -5 c17 -3 49
-11 70 -19z m-888 -82 c-4 -19 -2 -43 5 -56 17 -31 21 -60 8 -60 -6 0 -28 -19
-49 -41 -32 -35 -41 -40 -54 -29 -8 6 -17 28 -21 49 -4 20 -13 48 -20 62 -12
24 -11 27 19 43 18 9 47 28 66 41 45 33 53 32 46 -9z m1039 -6 c26 -22 52 -40
57 -40 4 0 2 -12 -6 -27 -7 -16 -21 -49 -30 -75 -9 -27 -20 -48 -24 -48 -4 0
-15 14 -25 31 -10 17 -31 36 -45 42 -22 10 -27 17 -24 37 2 14 7 46 10 73 6
60 22 61 87 7z m-474 -75 c34 -18 77 -64 89 -98 14 -37 14 -123 0 -150 -72
-139 -260 -149 -337 -18 -95 162 82 350 248 266z m-250 1 c0 -2 -13 -30 -30
-61 -21 -41 -30 -71 -30 -106 0 -34 -4 -49 -13 -49 -22 0 -46 33 -53 71 -4 19
-13 44 -20 56 -12 19 -12 22 5 28 10 3 36 19 57 35 33 25 84 41 84 26z m415
-23 c17 -16 40 -33 51 -39 14 -9 16 -14 8 -25 -6 -8 -19 -38 -28 -66 -10 -29
-19 -53 -21 -53 -2 0 -10 -2 -18 -6 -11 -4 -15 8 -19 54 -6 56 -19 90 -54 140
-16 22 -16 22 16 22 21 0 44 -10 65 -27z m-876 -49 c1 -12 10 -33 22 -48 23
-30 22 -30 -56 -42 l-50 -8 57 -10 c31 -6 59 -14 63 -17 3 -4 -3 -22 -14 -40
-12 -19 -21 -41 -21 -49 -1 -58 -56 -40 -95 31 -14 27 -36 56 -48 65 l-22 17
33 36 c118 130 114 127 123 106 4 -11 8 -30 8 -41z m1305 35 c15 -11 35 -38
46 -59 11 -21 30 -47 44 -57 23 -18 23 -20 6 -31 -11 -6 -37 -36 -60 -66 -22
-31 -49 -60 -60 -66 -17 -9 -20 -6 -25 27 -4 21 -16 50 -26 66 -22 31 -22 31
56 43 l50 7 -45 9 c-98 19 -94 17 -76 37 9 10 23 39 32 64 9 26 19 47 24 47 4
0 19 -9 34 -21z m-1058 -34 c12 -9 14 -14 6 -15 -13 0 -32 -38 -66 -132 -10
-27 -23 -48 -31 -48 -7 0 -26 21 -43 47 l-31 47 31 44 c27 39 72 70 104 72 5
0 19 -7 30 -15z m831 4 c20 -6 41 -27 61 -58 l29 -48 -33 -46 c-19 -26 -38
-47 -42 -47 -12 0 -30 43 -43 98 -5 26 -20 57 -32 70 -18 20 -19 24 -7 32 19
12 30 12 67 -1z m-772 -94 c14 -49 29 -68 72 -90 2 -1 -2 -15 -9 -31 -9 -24
-8 -40 5 -77 l16 -47 -29 0 c-19 0 -44 14 -76 41 -27 23 -60 46 -75 51 l-27 9
24 42 c13 23 24 49 24 57 1 23 38 100 49 100 5 0 17 -25 26 -55z m689 40 c8
-8 20 -41 26 -73 7 -31 21 -69 31 -83 l19 -27 -25 -6 c-14 -4 -55 -27 -91 -51
-74 -51 -90 -55 -79 -22 16 51 17 88 2 111 -15 22 -14 24 9 35 22 10 32 27 63
104 12 31 23 34 45 12z m205 -118 c6 -8 14 -29 17 -48 4 -19 13 -46 20 -60 12
-24 11 -27 -19 -43 -18 -9 -47 -28 -66 -41 -19 -14 -38 -25 -42 -25 -4 0 -7
19 -6 43 0 23 -3 51 -8 61 -8 17 -5 19 26 12 19 -3 52 -9 74 -11 l40 -5 -45
23 c-74 37 -73 35 -44 73 29 38 36 40 53 21z m-926 -161 c36 -30 57 -40 83
-40 18 0 34 -1 34 -2 0 0 -5 -15 -11 -32 -14 -42 -74 -63 -122 -43 -18 7 -41
15 -52 18 -18 4 -20 11 -18 66 4 102 4 102 86 33z m786 40 c6 -7 11 -40 10
-73 l-2 -59 -61 -17 c-73 -21 -121 -10 -137 30 -14 36 -11 43 15 43 13 0 52
20 87 44 73 51 73 51 88 32z m-1013 -87 c10 -12 34 -28 52 -36 17 -7 32 -17
32 -22 0 -5 -18 -24 -40 -41 -23 -18 -39 -34 -36 -37 2 -2 27 7 55 21 61 32
61 32 61 2 0 -13 7 -43 15 -66 8 -24 13 -45 11 -48 -11 -10 -76 -2 -107 14
-19 9 -47 20 -63 23 l-29 6 2 89 c3 121 10 136 47 95z m677 -19 c56 0 64 -4
49 -27 -8 -13 -157 -53 -199 -53 -27 0 -103 51 -103 69 0 5 22 6 48 3 41 -4
53 0 78 21 29 25 29 25 50 6 15 -14 35 -19 77 -19z m526 22 c5 -10 9 -57 8
-105 -2 -83 -3 -87 -24 -87 -12 0 -45 -9 -73 -20 -51 -20 -91 -25 -103 -14 -3
4 1 20 9 37 9 16 16 45 16 63 0 19 2 34 4 34 3 0 28 -12 57 -26 l52 -26 -44
46 c-25 25 -43 47 -40 49 2 2 18 9 36 16 17 7 39 21 49 32 21 24 40 24 53 1z
m-782 -79 c21 -21 56 -51 76 -66 39 -29 45 -53 17 -68 -31 -16 -110 -36 -110
-28 0 5 -13 28 -30 51 -34 47 -40 101 -13 130 9 10 17 18 18 18 2 0 20 -17 42
-37z m375 20 c24 -22 25 -105 1 -124 -9 -8 -23 -26 -32 -40 l-16 -25 -63 24
c-72 28 -77 44 -22 78 57 37 100 75 100 90 0 18 9 18 32 -3z m-541 -59 c17 3
29 1 29 -5 0 -6 4 -8 9 -5 5 3 12 -6 15 -20 4 -15 18 -41 32 -59 30 -40 22
-45 -74 -45 l-67 0 -17 60 c-10 32 -18 68 -18 80 0 20 1 20 31 4 19 -10 43
-14 60 -10z m749 5 c0 -12 -10 -48 -22 -80 l-23 -59 -65 0 c-86 0 -102 11 -71
44 13 14 26 40 30 58 6 31 9 33 58 38 29 3 55 9 59 13 15 14 34 6 34 -14z
m-440 -172 c0 -72 17 -76 25 -7 6 51 10 61 24 57 14 -5 80 -29 89 -33 11 -5
-16 -37 -46 -55 -21 -12 -47 -31 -59 -41 -17 -16 -23 -17 -30 -6 -4 8 -29 29
-55 47 -52 35 -62 61 -25 61 13 0 32 6 42 14 27 20 35 11 35 -37z m-199 -67
c-5 -25 -8 -46 -6 -48 2 -2 16 20 31 50 14 29 28 54 29 56 1 2 15 -10 31 -25
16 -16 40 -36 54 -45 l25 -16 -24 -26 c-14 -14 -34 -26 -45 -26 -12 -1 -45 -9
-73 -19 -51 -17 -53 -17 -58 0 -4 10 -23 39 -45 65 -21 25 -40 57 -43 70 -4
23 -2 24 47 24 28 0 58 5 66 10 20 13 24 -13 11 -70z m505 70 c48 0 54 -2 54
-21 0 -27 -16 -56 -54 -100 -17 -19 -36 -44 -41 -54 -10 -17 -13 -17 -35 -3
-14 9 -50 23 -81 32 -49 14 -90 40 -78 50 2 1 21 13 42 25 20 13 42 32 48 44
11 19 14 17 41 -34 l28 -54 -6 64 c-6 58 -5 63 11 58 9 -4 41 -7 71 -7z"/>
</g>
</svg>
